# File created by Blade
# Date/Time:  Thu Jan 22 19:49:10 2015
#---------------------------------------------------------
:version 1.10
:name HOM
:units
  mass 1.0
  length 1.000000
  angle deg
:documentation
     Acclaim Skeleton File
:root
   axis xyz
   order TX TY TZ RX RY RZ
   position 0.000000 0.000000 0.000000
   orientation 0 0 0
:bonedata
   begin
      id 1
      name RightUpLeg_dum
      direction -1.000000 0.000000 0.000000
      length 4.478084
      axis 0.0 0.0 0.0 xyz
   end
   begin
      id 2
      name LeftUpLeg_dum
      direction 1.000000 0.000000 0.000000
      length 4.478084
      axis 0.0 0.0 0.0 xyz
   end
   begin
      id 3
      name Spine_dum
      direction 0.000000 1.000000 0.000000
      length 6.068208
      axis 0.0 0.0 0.0 xyz
   end
   begin
      id 4
      name RightUpLeg
      direction 0.000000 -1.000000 0.000000
      length 16.405774
      axis 0.0 0.0 0.0 xyz
      dof rx ry rz
   end
   begin
      id 5
      name RightLeg
      direction 0.000000 -1.000000 0.000000
      length 14.644143
      axis 0.0 0.0 0.0 xyz
      dof rx ry rz
   end
   begin
      id 6
      name RightFoot
      direction 0.000000 -0.258819 0.965926
      length 5.806150
      axis 15.0 0.0 0.0 xyz
      dof rx ry rz
   end
   begin
      id 7
      name RightToeBase
      direction 0.000000 0.000000 1.000000
      length 2.952750
      axis 0.0 0.0 0.0 xyz
      dof rx ry rz
   end
   begin
      id 8
      name LeftUpLeg
      direction 0.000000 -1.000000 0.000000
      length 16.405774
      axis 0.0 0.0 0.0 xyz
      dof rx ry rz
   end
   begin
      id 9
      name LeftLeg
      direction 0.000000 -1.000000 0.000000
      length 14.644143
      axis 0.0 0.0 0.0 xyz
      dof rx ry rz
   end
   begin
      id 10
      name LeftFoot
      direction 0.000000 -0.258819 0.965926
      length 5.806150
      axis 15.0 0.0 0.0 xyz
      dof rx ry rz
   end
   begin
      id 11
      name LeftToeBase
      direction 0.000000 0.000000 1.000000
      length 2.952750
      axis 0.0 0.0 0.0 xyz
      dof rx ry rz
   end
   begin
      id 12
      name Spine
      direction 0.000000 1.000000 0.000000
      length 0.000000
      axis 0.0 0.0 0.0 xyz
      dof rx ry rz
   end
   begin
      id 13
      name Spine_dum1
      direction 0.000000 1.000000 0.000000
      length 10.013923
      axis 0.0 0.0 0.0 xyz
   end
   begin
      id 14
      name Spine_dum2
      direction 0.000000 1.000000 0.000000
      length 10.013923
      axis 0.0 0.0 0.0 xyz
   end
   begin
      id 15
      name Spine_dum3
      direction 0.000000 1.000000 0.000000
      length 15.777476
      axis 0.0 0.0 0.0 xyz
   end
   begin
      id 16
      name RightShoulder
      direction -1.000000 0.000000 0.000000
      length 7.190220
      axis 0.0 0.0 90.0 xyz
      dof rx ry rz
   end
   begin
      id 17
      name RightArm
      direction -1.000000 0.000000 0.000000
      length 10.177469
      axis 0.0 0.0 90.0 xyz
      dof rx ry rz
   end
   begin
      id 18
      name RightForeArm
      direction -1.000000 0.000000 0.000000
      length 8.392114
      axis 0.0 0.0 90.0 xyz
      dof ry rz rx
   end
   begin
      id 19
      name RightHand
      direction -1.000000 0.000000 0.000000
      length 0.000000
      axis 0.0 0.0 90.0 xyz
      dof rx ry rz
   end
   begin
      id 20
      name RightHand_dum1
      direction -1.000000 0.000000 0.000000
      length 3.937000
      axis 0.0 0.0 90.0 xyz
   end
   begin
      id 21
      name RightHand_dum2
      direction 0.000000 0.000000 0.000000
      length 0.000000
      axis 0.0 0.0 90.0 xyz
   end
   begin
      id 22
      name RightHandThumb1
      direction 0.000000 0.000000 1.000000
      length 3.937000
      axis 0.0 0.0 90.0 xyz
      dof rx rz ry
   end
   begin
      id 23
      name LeftShoulder
      direction 1.000000 0.000000 0.000000
      length 7.190220
      axis 0.0 0.0 -90.0 xyz
      dof rx ry rz
   end
   begin
      id 24
      name LeftArm
      direction 1.000000 0.000000 0.000000
      length 10.177469
      axis 0.0 0.0 -90.0 xyz
      dof rx ry rz
   end
   begin
      id 25
      name LeftForeArm
      direction 1.000000 0.000000 0.000000
      length 8.392114
      axis 0.0 0.0 -90.0 xyz
      dof ry rz rx
   end
   begin
      id 26
      name LeftHand
      direction 1.000000 0.000000 0.000000
      length 0.000000
      axis 0.0 0.0 -90.0 xyz
      dof rx ry rz
   end
   begin
      id 27
      name LeftHand_dum1
      direction 1.000000 0.000000 0.000000
      length 3.937000
      axis 0.0 0.0 -90.0 xyz
   end
   begin
      id 28
      name LeftHand_dum2
      direction 0.000000 0.000000 0.000000
      length 0.000000
      axis 0.0 0.0 -90.0 xyz
   end
   begin
      id 29
      name LeftHandThumb1
      direction 0.000000 0.000000 1.000000
      length 3.937000
      axis 0.0 0.0 -90.0 xyz
      dof rx rz ry
   end
   begin
      id 30
      name Head
      direction 0.000000 1.000000 0.000000
      length 4.527550
      axis 0.0 0.0 0.0 xyz
      dof rx ry rz
   end
:hierarchy
   begin
      root RightUpLeg_dum LeftUpLeg_dum Spine_dum
      RightUpLeg_dum RightUpLeg
      LeftUpLeg_dum LeftUpLeg
      Spine_dum Spine
      RightUpLeg RightLeg
      RightLeg RightFoot
      RightFoot RightToeBase
      LeftUpLeg LeftLeg
      LeftLeg LeftFoot
      LeftFoot LeftToeBase
      Spine Spine_dum1 Spine_dum2 Spine_dum3
      Spine_dum1 RightShoulder
      Spine_dum2 LeftShoulder
      Spine_dum3 Head
      RightShoulder RightArm
      RightArm RightForeArm
      RightForeArm RightHand
      RightHand RightHand_dum1 RightHand_dum2
      RightHand_dum2 RightHandThumb1
      LeftShoulder LeftArm
      LeftArm LeftForeArm
      LeftForeArm LeftHand
      LeftHand LeftHand_dum1 LeftHand_dum2
      LeftHand_dum2 LeftHandThumb1
   end

# File created by Blade
# Date/Time:  Thu Jan 22 19:49:01 2015
# Frame Rate: 120.000 fps
#------------------------------------------------------
:FULLY-SPECIFIED
:DEGREES
1084
root -2.538085 2.943397 -10.968643 -31.991515 -5.919170 10.006685
RightUpLeg -60.503097 16.036477 -6.176188
RightLeg 6.692078 -0.000000 -0.000000
RightFoot 14.651615 12.457298 4.402648
RightToeBase -12.926899 -0.000000 0.000000
LeftUpLeg -105.202912 -33.432430 -42.429881
LeftLeg 124.767750 -0.000000 -0.000000
LeftFoot -0.157284 15.708104 -2.045935
LeftToeBase -15.340134 -0.000000 0.000000
Spine 36.015464 7.203101 -8.938125
RightShoulder -7.034682 -9.078168 -23.744653
RightArm 32.975963 -21.210378 76.361038
RightForeArm 11.558293 -0.000000 90.161637
RightHand 3.375435 -0.000000 18.063421
RightHandThumb1 -24.326973 -0.000000 -32.862282
LeftShoulder -19.400195 19.325257 17.154444
LeftArm -9.721178 28.799947 -91.799545
LeftForeArm 4.645545 -0.000000 50.061490
LeftHand -15.241870 0.000000 -6.717322
LeftHandThumb1 -26.253704 0.000000 33.147579
Head 9.916364 21.597890 -14.617111
1085
root -2.534115 2.945759 -10.960629 -31.841217 -6.061755 10.040280
RightUpLeg -60.671520 16.167538 -6.187215
RightLeg 6.674933 -0.000000 -0.000000
RightFoot 14.635306 12.327364 4.262625
RightToeBase -12.830147 -0.000000 0.000000
LeftUpLeg -104.811576 -33.512627 -42.677295
LeftLeg 125.209060 -0.000000 -0.000000
LeftFoot -0.477510 15.698344 -2.296422
LeftToeBase -15.138596 -0.000000 0.000000
Spine 35.944754 7.249416 -8.894589
RightShoulder -7.092148 -9.188405 -23.638596
RightArm 32.771389 -21.320672 76.423440
RightForeArm 11.822288 -0.000000 89.897269
RightHand 3.460397 -0.000000 18.018881
RightHandThumb1 -24.326973 -0.000000 -32.862282
LeftShoulder -19.576357 19.316630 16.948286
LeftArm -9.651821 28.716570 -91.689866
LeftForeArm 4.696973 -0.000000 49.957779
LeftHand -15.159751 -0.000000 -6.812986
LeftHandThumb1 -26.253704 0.000000 33.147579
Head 9.649467 21.737487 -14.746417
1086
root -2.523770 2.949754 -10.947380 -31.697706 -6.155846 10.127095
RightUpLeg -60.901774 16.336962 -6.375417
RightLeg 6.727371 -0.000000 -0.000000
RightFoot 14.534898 12.177584 4.173925
RightToeBase -12.797988 -0.000000 0.000000
LeftUpLeg -104.379059 -33.616702 -43.039651
LeftLeg 125.599774 -0.000000 -0.000000
LeftFoot -0.474465 15.943817 -2.002677
LeftToeBase -15.238194 -0.000000 0.000000
Spine 35.871018 7.264382 -8.930327
RightShoulder -7.127747 -9.349603 -23.529746
RightArm 32.589741 -21.353175 76.526010
RightForeArm 11.891077 -0.000000 89.654626
RightHand 3.370614 -0.000000 18.165143
RightHandThumb1 -24.326973 -0.000000 -32.862282
LeftShoulder -19.792979 19.278177 16.748104
LeftArm -9.615411 28.674163 -91.587185
LeftForeArm 4.757712 -0.000000 49.834666
LeftHand -15.059196 -0.000000 -6.973021
LeftHandThumb1 -26.253704 0.000000 33.147579
Head 9.344721 21.896281 -14.883069
1087
root -2.519374 2.955449 -10.929035 -31.601182 -6.246098 10.158044
RightUpLeg -61.027420 16.485621 -6.407295
RightLeg 6.810680 -0.000000 -0.000000
RightFoot 14.282042 11.897626 4.180851
RightToeBase -12.222426 -0.000000 0.000000
LeftUpLeg -103.882332 -33.683268 -43.369598
LeftLeg 126.049994 -0.000000 -0.000000
LeftFoot -0.518889 15.967054 -1.960041
LeftToeBase -15.573204 -0.000000 0.000000
Spine 35.867296 7.289494 -8.872991
RightShoulder -7.195046 -9.528354 -23.433489
RightArm 32.417701 -21.401510 76.601443
RightForeArm 11.933700 -0.000000 89.391830
RightHand 3.413774 -0.000000 18.449729
RightHandThumb1 -24.326973 -0.000000 -32.862282
LeftShoulder -19.957542 19.193416 16.552068
LeftArm -9.619599 28.661166 -91.480372
LeftForeArm 4.809585 0.000000 49.741657
LeftHand -14.986860 0.000000 -7.015889
LeftHandThumb1 -26.253704 0.000000 33.147579
Head 9.033989 21.976172 -15.051452
1088
root -2.518134 2.961291 -10.914003 -31.478081 -6.374430 10.169088
RightUpLeg -61.174008 16.648220 -6.425620
RightLeg 6.845633 -0.000000 -0.000000
RightFoot 14.221909 11.800900 4.239782
RightToeBase -11.611041 -0.000000 0.000000
LeftUpLeg -103.408145 -33.777956 -43.691001
LeftLeg 126.523158 -0.000000 -0.000000
LeftFoot -0.581887 16.182431 -1.930257
LeftToeBase -15.529878 -0.000000 0.000000
Spine 35.837438 7.693237 -8.581339
RightShoulder -7.557601 -9.917961 -23.176808
RightArm 32.241993 -21.418381 76.593202
RightForeArm 11.940269 0.000000 89.180888
RightHand 3.372355 -0.000000 18.089137
RightHandThumb1 -24.326973 -0.000000 -32.862282
LeftShoulder -19.673450 19.006180 16.560122
LeftArm -9.645513 28.578080 -91.455507
LeftForeArm 4.940246 -0.000000 49.627868
LeftHand -14.908336 -0.000000 -6.999236
LeftHandThumb1 -26.253704 0.000000 33.147579
Head 8.944072 21.654814 -15.010659
1089
root -2.520322 2.962377 -10.906146 -31.288992 -6.493401 10.199066
RightUpLeg -61.432820 16.808213 -6.529123
RightLeg 6.876936 -0.000000 -0.000000
RightFoot 14.375405 11.942533 4.249347
RightToeBase -11.543138 -0.000000 0.000000
LeftUpLeg -102.994932 -33.850784 -44.016651
LeftLeg 127.000271 -0.000000 -0.000000
LeftFoot -0.579794 16.305457 -1.833578
LeftToeBase -15.375210 -0.000000 0.000000
Spine 35.760136 7.823223 -8.503415
RightShoulder -7.676702 -10.053315 -23.007093
RightArm 32.009136 -21.485609 76.640495
RightForeArm 12.166094 -0.000000 88.925406
RightHand 3.403738 -0.000000 18.020409
RightHandThumb1 -24.326973 -0.000000 -32.862282
LeftShoulder -19.791960 18.939531 16.396572
LeftArm -9.564907 28.555404 -91.321728
LeftForeArm 5.008450 -0.000000 49.505117
LeftHand -14.846179 -0.000000 -7.027666
LeftHandThumb1 -26.253704 0.000000 33.147579
Head 8.619177 21.659650 -15.120451
1090
root -2.517234 2.964161 -10.893962 -31.105170 -6.573965 10.276904
RightUpLeg -61.694187 16.921950 -6.696208
RightLeg 6.906483 -0.000000 -0.000000
RightFoot 14.434727 12.207764 4.077025
RightToeBase -11.722390 -0.000000 0.000000
LeftUpLeg -102.566677 -33.940167 -44.378650
LeftLeg 127.432112 -0.000000 -0.000000
LeftFoot -0.547391 16.481284 -1.726021
LeftToeBase -15.419630 -0.000000 0.000000
Spine 35.683460 7.921478 -8.502047
RightShoulder -7.783417 -10.271058 -22.812994
RightArm 31.915731 -21.597278 76.591493
RightForeArm 12.556940 0.000000 88.679498
RightHand 3.462000 -0.000000 17.910840
RightHandThumb1 -24.326973 -0.000000 -32.862282
LeftShoulder -19.919887 18.793423 16.251395
LeftArm -9.606722 28.563300 -91.226811
LeftForeArm 5.078127 -0.000000 49.386341
LeftHand -14.753329 -0.000000 -7.054158
LeftHandThumb1 -26.253704 0.000000 33.147579
Head 8.255224 21.685368 -15.255182
1091
root -2.519214 2.965495 -10.880161 -30.924150 -6.671002 10.336539
RightUpLeg -61.936840 17.053240 -6.798536
RightLeg 6.943475 -0.000000 -0.000000
RightFoot 14.608654 12.409031 4.159540
RightToeBase -11.836702 -0.000000 0.000000
LeftUpLeg -102.175190 -34.006569 -44.718449
LeftLeg 127.852084 -0.000000 -0.000000
LeftFoot -0.237240 16.699959 -1.517476
LeftToeBase -16.475681 -0.000000 0.000000
Spine 35.603829 7.979157 -8.493057
RightShoulder -7.819218 -10.430095 -22.671959
RightArm 31.722421 -21.644302 76.724202
RightForeArm 12.676863 -0.000000 88.411680
RightHand 3.505896 0.000000 17.934376
RightHandThumb1 -24.326973 -0.000000 -32.862282
LeftShoulder -20.083182 18.650447 16.063642
LeftArm -9.670361 28.566317 -91.106358
LeftForeArm 5.106383 -0.000000 49.282382
LeftHand -14.634585 0.000000 -7.051567
LeftHandThumb1 -26.253704 0.000000 33.147579
Head 7.906601 21.755030 -15.440456
1092
root -2.523227 2.965970 -10.867305 -30.724008 -6.770237 10.379574
RightUpLeg -62.193815 17.164762 -6.865082
RightLeg 6.995441 -0.000000 -0.000000
RightFoot 14.764743 12.614574 4.188017
RightToeBase -11.896699 -0.000000 0.000000
LeftUpLeg -101.794244 -34.116785 -45.070132
LeftLeg 128.166443 -0.000000 -0.000000
LeftFoot 0.393485 17.118939 -1.146200
LeftToeBase -17.773452 -0.000000 0.000000
Spine 35.495016 8.082396 -8.451428
RightShoulder -7.901492 -10.597266 -22.488530
RightArm 31.552173 -21.704141 76.797648
RightForeArm 12.882146 -0.000000 88.138732
RightHand 3.530372 -0.000000 17.829000
RightHandThumb1 -24.326973 -0.000000 -32.862282
LeftShoulder -20.198496 18.600690 15.915024
LeftArm -9.600153 28.525511 -90.995717
LeftForeArm 5.132049 -0.000000 49.104924
LeftHand -14.546563 -0.000000 -7.083545
LeftHandThumb1 -26.253704 0.000000 33.147579
Head 7.616593 21.718845 -15.567624
1093
root -2.528933 2.967878 -10.855295 -30.504362 -6.850034 10.412202
RightUpLeg -62.438445 17.210479 -6.858949
RightLeg 7.031929 -0.000000 -0.000000
RightFoot 14.940097 12.951142 4.084059
RightToeBase -12.241050 -0.000000 0.000000
LeftUpLeg -101.501214 -34.203411 -45.269127
LeftLeg 128.480925 -0.000000 -0.000000
LeftFoot 1.034706 17.257606 -0.864968
LeftToeBase -18.750097 -0.000000 0.000000
Spine 35.395162 8.182080 -8.387652
RightShoulder -8.016887 -10.785221 -22.295906
RightArm 31.402517 -21.749241 76.905779
RightForeArm 13.200781 0.000000 87.879733
RightHand 3.519939 -0.000000 17.798435
RightHandThumb1 -24.326973 -0.000000 -32.862282
LeftShoulder -20.302639 18.493405 15.765243
LeftArm -9.543757 28.477033 -90.878810
LeftForeArm 5.218673 -0.000000 48.890026
LeftHand -14.418315 0.000000 -7.127408
LeftHandThumb1 -26.253704 0.000000 33.147579
Head 7.268271 21.678560 -15.770443
